<svg width="18" height="18" viewBox="0 0 18 18" fill="none" xmlns="http://www.w3.org/2000/svg">
<path d="M17.9618 9.79C17.8045 11.4922 17.1657 13.1144 16.1201 14.4668C15.0744 15.8192 13.6653 16.8458 12.0575 17.4265C10.4497 18.0073 8.7098 18.1181 7.04132 17.7461C5.37283 17.3741 3.84481 16.5345 2.63604 15.3258C1.42727 14.117 0.587755 12.589 0.215723 10.9205C-0.156309 9.25202 -0.0454686 7.51208 0.535275 5.9043C1.11602 4.29651 2.14265 2.88737 3.49503 1.84175C4.84741 0.79614 6.46961 0.157305 8.17182 0C7.17523 1.34827 6.69566 3.00945 6.82035 4.68141C6.94503 6.35338 7.66568 7.92506 8.85122 9.1106C10.0368 10.2961 11.6084 11.0168 13.2804 11.1415C14.9524 11.2662 16.6135 10.7866 17.9618 9.79Z" fill="#646464"/>
</svg>
