<svg width="53" height="56" viewBox="0 0 53 56" fill="none" xmlns="http://www.w3.org/2000/svg">
<path fill-rule="evenodd" clip-rule="evenodd" d="M44 9.5998C39.3321 5.49165 33.207 3 26.5 3C11.8645 3 0 14.8645 0 29.5C0 44.1355 11.8645 56 26.5 56C41.1355 56 53 44.1355 53 29.5C53 28.6569 52.9606 27.823 52.8836 27H47.8562C47.9512 27.8202 48 28.6544 48 29.5C48 41.3741 38.3741 51 26.5 51C14.6259 51 5 41.3741 5 29.5C5 17.6259 14.6259 8 26.5 8C33.7152 8 40.1003 11.5541 44 17.0071V9.5998Z" fill="#828692"/>
<path d="M32.133 16.0833L45.0836 14.9503L43.9505 1.99979" stroke="#828692" stroke-width="4" stroke-linecap="round"/>
</svg>
