<?xml version="1.0" encoding="utf-8"?>
<svg width="726px" height="800px" viewBox="0 0 726 800" version="1.1" xmlns:xlink="http://www.w3.org/1999/xlink" xmlns="http://www.w3.org/2000/svg">
  <desc>Created with Lunacy</desc>
  <g id="Group-3">
    <path d="M0 312.5C0 139.911 162.521 0 363 0C563.479 0 726 139.911 726 312.5C726 485.089 563.479 625 363 625C162.521 625 0 485.089 0 312.5Z" id="Ellipse-7" fill="#FFFFFF" stroke="none" />
    <g id="Group" transform="translate(41.73486 88)">
      <path d="M174.925 0L560.909 84.4604L406.81 207.966L0 107.013L174.925 0Z" transform="translate(0 166.7047)" id="New-shape" fill="#ACACAC" stroke="none" />
      <path d="M560.875 0L560.875 19.4748L409.927 145.478L0 38.9497L0 22.5908L406.245 123.47L560.875 0Z" transform="translate(0.3896484 251.0297)" id="New-shape-2" fill="#D3D3D3" stroke="none" />
      <path d="M1.24439 0L0 182.85L283.229 245.962L290.565 52.2623L1.24439 0Z" transform="translate(204.0967 0)" id="New-shape-3" fill="#F6F6F6" stroke="none" />
      <path d="M0 48.2976C0 21.6236 57.1978 0 127.755 0C198.312 0 255.51 21.6236 255.51 48.2976C255.51 74.9716 198.312 96.5952 127.755 96.5952C57.1978 96.5952 0 74.9716 0 48.2976Z" transform="translate(68.55176 615.4048)" id="Ellipse-8" fill="#F6F6F6" stroke="none" />
      <path d="M3.22628 12.465C3.22628 12.465 -2.04604 23.5534 0.889062 28.824C3.82416 34.0946 5.16995 41.3182 13.3532 38.1707C17.1941 36.6934 23.9633 29.8566 31.6595 24.5383C40.3606 18.5255 51.0227 13.9396 51.5239 11.6849C52.4683 7.43592 53.5265 3.14736 48.0184 0C41.4083 0.629605 25.6992 6.19907 18.8062 10.5176C11.9131 14.8362 3.22628 12.465 3.22628 12.465Z" transform="translate(134.656 618.1312)" id="New-shape-16" fill="#393939" stroke="none" />
      <path d="M131.433 23.9225L11.3406 1.93381Q11.099 1.88957 10.8553 1.85858Q10.6116 1.82759 10.3666 1.80993Q10.1216 1.79228 9.87604 1.78801Q9.63044 1.78375 9.38498 1.79289Q9.13952 1.80203 8.89492 1.82454Q8.65032 1.84706 8.40731 1.88289Q8.16431 1.91871 7.92361 1.96774Q7.68293 2.01677 7.44527 2.07885Q7.20761 2.14094 6.97369 2.2159Q6.73978 2.29085 6.5103 2.37846Q6.28082 2.46607 6.05646 2.56606Q5.8321 2.66605 5.61353 2.77814Q5.39496 2.89022 5.18283 3.01406Q4.9707 3.1379 4.76564 3.27313Q4.56058 3.40835 4.36321 3.55457Q4.16583 3.70078 3.97672 3.85754Q3.78762 4.0143 3.60734 4.18115Q3.42707 4.34799 3.25616 4.52442Q3.08526 4.70085 2.92423 4.88634Q2.76321 5.07183 2.61254 5.26582Q2.46188 5.45982 2.32202 5.66175Q2.18215 5.86368 2.05352 6.07293Q1.92488 6.28219 1.80785 6.49815Q1.69082 6.71411 1.58575 6.93614Q1.48067 7.15816 1.38787 7.38559Q1.29506 7.61301 1.2148 7.84516Q1.13453 8.07731 1.06705 8.3135Q0.999576 8.54968 0.945081 8.78919Q0.890586 9.0287 0.849238 9.27083Q0.80789 9.51296 0.779812 9.75698Q0.751733 10.001 0.737008 10.2462Q0.722283 10.4914 0.720956 10.737L0.0393102 136.841Q0.0382769 137.033 0.0453629 137.224Q0.0524489 137.415 0.0676415 137.605Q0.0828341 137.796 0.106106 137.986Q0.129378 138.175 0.160686 138.364Q0.191995 138.552 0.231285 138.74Q0.270574 138.927 0.317774 139.112Q0.364973 139.297 0.419997 139.48Q0.475021 139.663 0.53777 139.844Q0.600519 140.024 0.670881 140.202Q0.741242 140.38 0.819089 140.555Q0.896935 140.729 0.982127 140.9Q1.06732 141.071 1.1597 141.239Q1.25208 141.406 1.35149 141.569Q1.4509 141.733 1.55715 141.892Q1.6634 142.051 1.7763 142.205Q1.88921 142.359 2.00856 142.508Q2.12792 142.658 2.2535 142.802Q2.37909 142.946 2.51069 143.085Q2.64229 143.223 2.77965 143.356Q2.91702 143.489 3.05991 143.616Q3.20279 143.743 3.35095 143.864Q3.4991 143.985 3.65225 144.099Q3.8054 144.214 3.96327 144.322Q4.12114 144.429 4.28345 144.53Q4.44575 144.631 4.6122 144.725Q4.77865 144.819 4.94895 144.906Q5.11924 144.993 5.29307 145.073Q5.4669 145.152 5.64395 145.224Q5.82099 145.296 6.00095 145.361Q6.1809 145.426 6.36343 145.482Q6.54596 145.539 6.73074 145.588Q6.91552 145.637 7.10221 145.678L123.787 171.383Q124.028 171.436 124.272 171.476Q124.516 171.516 124.762 171.542Q125.007 171.568 125.254 171.581Q125.5 171.594 125.747 171.593Q125.994 171.593 126.241 171.579Q126.488 171.564 126.733 171.537Q126.978 171.509 127.222 171.468Q127.465 171.427 127.706 171.372Q127.947 171.318 128.185 171.25Q128.422 171.183 128.656 171.102Q128.889 171.022 129.118 170.929Q129.347 170.835 129.57 170.73Q129.794 170.624 130.011 170.506Q130.228 170.389 130.438 170.259Q130.649 170.13 130.852 169.989Q131.055 169.848 131.249 169.697Q131.444 169.545 131.631 169.383Q131.817 169.221 131.994 169.049Q132.171 168.877 132.339 168.695Q132.506 168.513 132.663 168.323Q132.821 168.132 132.967 167.934Q133.114 167.735 133.249 167.528Q133.385 167.322 133.508 167.108Q133.632 166.894 133.744 166.674Q133.856 166.454 133.956 166.228Q134.056 166.002 134.143 165.771Q134.23 165.54 134.304 165.304Q134.379 165.069 134.44 164.83Q134.502 164.59 134.55 164.348Q134.598 164.106 134.633 163.861Q134.667 163.617 134.689 163.371Q134.71 163.125 134.718 162.878L138.807 33.0577Q138.813 32.8579 138.81 32.658Q138.808 32.4582 138.796 32.2587Q138.785 32.0591 138.764 31.8603Q138.744 31.6615 138.715 31.4637Q138.686 31.266 138.648 31.0697Q138.61 30.8735 138.564 30.6791Q138.517 30.4847 138.462 30.2926Q138.407 30.1005 138.343 29.911Q138.28 29.7216 138.208 29.5351Q138.136 29.3486 138.056 29.1655Q137.976 28.9824 137.887 28.8031Q137.799 28.6237 137.703 28.4485Q137.607 28.2732 137.503 28.1024Q137.399 27.9316 137.288 27.7655Q137.177 27.5995 137.059 27.4386Q136.94 27.2776 136.814 27.1221Q136.689 26.9666 136.557 26.8168Q136.424 26.667 136.285 26.5232Q136.147 26.3794 136.002 26.242Q135.856 26.1045 135.705 25.9736Q135.554 25.8427 135.398 25.7187Q135.241 25.5946 135.079 25.4776Q134.917 25.3607 134.75 25.251Q134.583 25.1413 134.411 25.0392Q134.239 24.9371 134.063 24.8426Q133.887 24.7482 133.707 24.6617Q133.526 24.5752 133.343 24.4968Q133.159 24.4184 132.972 24.3482Q132.784 24.2781 132.594 24.2163Q132.404 24.1545 132.212 24.1012Q132.019 24.0479 131.824 24.0032Q131.629 23.9585 131.433 23.9225Z" transform="translate(213.834 25.31726)" id="New-shape-20" fill="#D3D3D3" stroke="none" />
      <path d="M5.63588 3.84924C5.63588 3.84924 -2.28996 13.7508 0.656599 23.8657C3.60312 33.9805 14.0057 28.839 23.2124 28.5999C32.4191 28.3608 53.7637 29.9702 57.7387 29.7036C61.7136 29.437 66.276 15.3493 54.4954 11.5411C42.7147 7.73285 24.2883 9.58862 20.2231 2.77325C16.1579 -4.04218 5.63588 3.84924 5.63588 3.84924Z" transform="matrix(0.9702957 -0.2419219 0.2419219 0.9702957 192.9634 661.0382)" id="New-shape-17" fill="#393939" stroke="none" />
      <path d="M5.69424 0C5.69424 0 2.14319 68.9988 8.42037 115.291C-5.20319 177.819 1.79928 260.18 1.79928 260.18C1.79928 260.18 5.98611 262.419 9.97841 262.127C13.9707 261.835 20.8843 258.622 20.8843 258.622L47.508 129.103L69.7651 51.2045L66.0555 17.0777L5.69424 0Z" transform="translate(135.304 370.8009)" id="New-shape-15" fill="#517CA4" stroke="none" />
      <path d="M2.69563 0C2.69563 0 -1.17342 38.2901 0.359049 44.7926C1.89152 51.295 35.6458 71.3742 49.0462 71.2786C57.1024 71.5644 54.3492 333.646 54.3492 333.646C54.3492 333.646 59.8402 336.848 65.7945 337.309C71.7487 337.77 78.1663 335.491 78.1663 335.491C78.1663 335.491 96.7892 225.867 109.029 165.536C121.268 105.206 117.892 20.3083 117.892 20.3083L2.69563 0Z" transform="translate(140.6392 326.3983)" id="New-shape-14" fill="#6496C7" stroke="none" />
      <path d="M0 12.2586L6.32819 9.04089L15.0122 0.811035C18.6996 -0.611664 20.6733 -0.56665 27.5106 4.29248C28.9102 5.28717 30.5136 6.48358 32.3773 7.9104C43.3451 16.3076 20.4332 12.6899 19.4514 12.6899" transform="matrix(0.8910065 -0.4539905 0.4539905 0.8910065 348.9854 272.0183)" id="New-shape-21" fill="#FCCDB4" stroke="none" />
      <path d="M0 11.2953C0 5.05707 8.89337 3.05176e-05 19.8641 0C30.8347 3.05176e-05 39.7281 5.0571 39.7281 11.2953C39.7281 17.5335 30.8347 22.5905 19.8641 22.5905C8.89337 22.5905 -6.10352e-05 17.5335 0 11.2953Z" transform="matrix(0.9612617 -0.2756374 0.2756374 0.9612617 360.6035 268.8204)" id="Ellipse-7" fill="#FFFFFF" stroke="none" />
      <path d="M0 9.81763L6.32823 6.59981L13.2482 3.0811C17.6904 1.36715 22.7266 0 27.4893 0C40.2522 0 21.5988 9.81763 20.617 9.81763" transform="translate(358.3374 264.3881)" id="New-shape-8" fill="#FCCDB4" stroke="none" />
      <path d="M0 9.8176L6.32823 6.59979L13.2482 3.08109C17.6904 1.36715 22.7266 0 27.4893 0C40.2522 0 21.5988 9.8176 20.617 9.8176" transform="translate(363.79 267.1947)" id="New-shape-22" fill="#FCCDB4" stroke="none" />
      <path d="M0 9.8176L6.32823 6.59979L13.2482 3.08109C17.6904 1.36715 22.7266 0 27.4893 0C40.2522 0 21.5988 9.8176 20.617 9.8176" transform="translate(366.9063 271.0896)" id="New-shape-23" fill="#FCCDB4" stroke="none" />
      <path d="M0 9.81761L6.32822 6.59979L13.2482 3.0811C17.6904 1.36715 22.7266 0 27.4893 0C40.2522 0 19.7871 9.93835 18.8054 9.93835" transform="translate(366.9058 275.7636)" id="New-shape-24" fill="#FCCDB4" stroke="none" />
      <path d="M20.5664 4.3637C20.5664 4.3637 35.6847 -3.26135 43.4236 1.64744C51.1624 6.55623 46.0032 20.3009 21.0669 19.3191C-3.86942 18.3374 3.43949 7.53799 0 7.53799" transform="translate(349.3745 268.0795)" id="New-shape-9" fill="#FCCDB4" stroke="none" />
      <path d="M23.4815 4.36364C23.4815 4.36364 40.7427 -3.26133 49.5784 1.64744C58.4142 6.55614 52.5236 20.3006 24.0529 19.3188C-4.41788 18.3371 3.927 7.53789 0 7.53789" transform="matrix(0.6293204 0.7771459 -0.7771459 0.6293204 142.4673 250.8327)" id="New-shape-11" fill="#F9B693" stroke="none" />
      <path d="M0 3.50547C0 1.56945 2.26699 0 5.06345 0C7.85992 0 10.1269 1.56945 10.1269 3.50547C10.1269 5.44149 7.85992 7.01094 5.06345 7.01094C2.26699 7.01094 0 5.44149 0 3.50547Z" transform="translate(181.5056 158.1356)" id="Ellipse-2" fill="#6C6C6C" stroke="none" />
      <path d="M0 44.845C0 19.2469 6.2375 0 26.2428 0C46.248 0 62.4655 20.7514 62.4655 46.3495C62.4655 71.9477 46.2481 92.699 26.2428 92.699C6.23753 92.699 1.52588e-05 70.4431 0 44.845Z" transform="matrix(0.9781476 -0.2079117 0.2079117 0.9781476 171.7903 67.91913)" id="Ellipse" fill="#FCCDB4" stroke="none" />
      <path d="M35.8337 0C35.8337 0 38.96 15.0828 55.3086 22.2013C53.3531 25.5771 49.4661 38.1707 49.4661 38.1707C49.4661 38.1707 57.3237 40.7391 62.709 44.7921C61.7957 50.1112 55.3087 58.814 55.3087 58.814L0 48.2976C0 48.2976 14.3711 36.2665 18.6959 24.1488C23.0206 12.0311 35.8337 0 35.8337 0Z" transform="translate(176.8318 121.9125)" id="New-shape-5" fill="#F9B693" stroke="none" />
      <path d="M50.0084 1.21449e-05L52.3455 39.339L39.1026 46.3499L52.735 95.8161L32.8707 107.106C32.8707 107.106 4.82733 56.1994 0.542136 42.0671C-3.74306 27.9347 18.6693 15.8164 22.3543 14.0212C26.0392 12.226 50.0084 1.21449e-05 50.0084 1.21449e-05Z" transform="translate(106.1799 169.4312)" id="New-shape-12" fill="#D4686D" stroke="none" />
      <path d="M104.278 11.3692C104.278 11.3692 128.378 14.2015 133.88 35.9072C137.074 62.5589 155.302 108.744 155.302 108.744L212.948 111.859L220.349 127.439C220.349 127.439 183.594 144.275 148.681 148.862C132.281 151.017 125.894 147.362 115.963 126.66L104.668 76.415C104.668 76.415 116.555 107.848 119.859 135.155C123.163 162.463 114.795 185.085 114.795 185.085C114.795 185.085 79.609 200.375 50.1383 195.212C20.6676 190.05 0 164.994 0 164.994L10.0208 33.4968C10.0208 33.4968 9.24171 19.1038 10.7998 10.906C12.3579 2.70814 34.2248 3.6453e-07 34.2248 3.6453e-07C34.2248 3.6453e-07 41.5833 6.57915 59.0967 9.42146C76.6101 12.2638 104.278 11.3692 104.278 11.3692Z" transform="translate(143.4412 161.2516)" id="New-shape-7" fill="#F4757B" stroke="none" />
      <path d="M0.423737 32.0522C-3.17916 51.6247 16.9428 73.9532 32.3624 99.0457C33.495 100.889 41.1261 93.9822 48.3318 88.9187C55.5375 83.8551 53.0059 70.2234 53.0059 70.2234C53.0059 70.2234 49.263 72.0872 45.6055 57.7593C41.9481 43.4315 57.942 47.0913 58.4589 53.8643C58.9759 60.6373 60.433 60.9119 62.3014 64.193C64.1698 67.4742 66.5684 61.9106 66.5684 61.9106L64.8814 43.6513C64.8814 43.6513 78.7535 -2.58215 69.3645 0.113454C54.8223 4.28856 53.1123 8.23485 42.0997 7.51396C31.0873 6.79309 4.02663 12.4798 0.423737 32.0522Z" transform="translate(159.6597 51.30011)" id="New-shape-4" fill="#272727" stroke="none" />
      <path d="M23.8868 82.051L0 0C0 0 0.605167 88.1364 23.4672 112.444C26.4158 94.5528 23.8868 82.051 23.8868 82.051Z" transform="translate(239.1514 213.4442)" id="New-shape-13" fill="#D4686D" stroke="none" />
      <path d="M12.0839 0.489777C0.538999 2.91159 6.51319 7.3058 29.6126 9.44828C63.8315 12.622 63.4979 8.66925 63.4979 8.66925C63.4979 8.66925 75.9972 11.6019 70.5105 15.6802C65.5874 19.3394 24.3369 14.7714 8.43848 9.78585C-7.45989 4.80032 3.4742 1.50526 6.24144 0.489714C9.00867 -0.525831 12.8595 0.327077 12.0839 0.489777Z" transform="translate(176.043 158.0353)" id="New-shape-6" fill="#D4686D" stroke="none" />
      <path d="M95.0091 20.947L6.13522 1.35265Q5.99808 1.32242 5.85946 1.29993Q5.72085 1.27744 5.58119 1.26277Q5.44153 1.2481 5.30127 1.24129Q5.161 1.23448 5.02058 1.23556Q4.88015 1.23664 4.74001 1.24559Q4.59987 1.25455 4.46045 1.27136Q4.32103 1.28818 4.18278 1.31279Q4.04452 1.3374 3.90787 1.36973Q3.77121 1.40207 3.63659 1.44202Q3.50196 1.48198 3.36979 1.52943Q3.23762 1.57688 3.10833 1.63167Q2.97903 1.68647 2.85301 1.74844Q2.72699 1.8104 2.60466 1.87935Q2.48232 1.94829 2.36404 2.02399Q2.24576 2.09969 2.13192 2.18192Q2.01808 2.26414 1.90904 2.35262Q1.79999 2.44111 1.69609 2.53558Q1.59218 2.63004 1.49375 2.73019Q1.39531 2.83034 1.30265 2.93586Q1.20999 3.04138 1.1234 3.15193Q1.0368 3.26249 0.956557 3.37773Q0.876309 3.49297 0.802657 3.61253Q0.729005 3.7321 0.662181 3.85561Q0.595357 3.97912 0.535572 4.10618Q0.475787 4.23325 0.42323 4.36347Q0.370673 4.4937 0.325509 4.62666Q0.280346 4.75963 0.242718 4.89492Q0.20509 5.03022 0.175116 5.16741Q0.145143 5.3046 0.122918 5.44326Q0.100694 5.58192 0.0862885 5.72161Q0.0718832 5.8613 0.0653424 6.00157Q0.0588016 6.14185 0.0601459 6.28227L0.149627 15.6286Q0.151634 15.8382 0.171186 16.0469Q0.190738 16.2556 0.227698 16.462Q0.264658 16.6684 0.318767 16.8709Q0.372875 17.0735 0.443752 17.2708Q0.514629 17.4681 0.601776 17.6587Q0.688924 17.8494 0.79173 18.0321Q0.894536 18.2148 1.01228 18.3883Q1.13002 18.5617 1.26187 18.7247Q1.39373 18.8877 1.53876 19.0391Q1.6838 19.1905 1.841 19.3292Q1.9982 19.4679 2.16647 19.5929Q2.33473 19.718 2.51287 19.8285Q2.69101 19.939 2.87778 20.0343Q3.06456 20.1295 3.25864 20.2087Q3.45273 20.288 3.65277 20.3507Q3.85282 20.4134 4.05741 20.4592L92.8418 40.3142Q92.9783 40.3448 93.1164 40.3676Q93.2544 40.3905 93.3935 40.4056Q93.5326 40.4207 93.6723 40.4279Q93.8121 40.4352 93.952 40.4347Q94.0919 40.4342 94.2316 40.4258Q94.3712 40.4174 94.5102 40.4013Q94.6492 40.3851 94.787 40.3612Q94.9249 40.3373 95.0612 40.3057Q95.1975 40.2741 95.3318 40.235Q95.4662 40.1958 95.5981 40.1492Q95.73 40.1026 95.8591 40.0487Q95.9882 39.9948 96.1141 39.9337Q96.24 39.8727 96.3623 39.8047Q96.4846 39.7367 96.6029 39.6619Q96.7211 39.5872 96.8351 39.506Q96.949 39.4247 97.0582 39.3373Q97.1674 39.2498 97.2715 39.1563Q97.3756 39.0629 97.4744 38.9638Q97.5731 38.8646 97.6662 38.7602Q97.7592 38.6557 97.8463 38.5461Q97.9333 38.4366 98.0141 38.3224Q98.0949 38.2081 98.1692 38.0896Q98.2435 37.971 98.311 37.8484Q98.3785 37.7259 98.4391 37.5998Q98.4997 37.4736 98.5531 37.3443Q98.6065 37.215 98.6526 37.0829Q98.6987 36.9508 98.7374 36.8163Q98.776 36.6819 98.8071 36.5454Q98.8381 36.409 98.8615 36.2711Q98.8849 36.1331 98.9005 35.9941Q98.9161 35.855 98.924 35.7153Q98.9318 35.5756 98.9318 35.4357L98.9318 25.8287Q98.9318 25.6171 98.9139 25.4063Q98.896 25.1954 98.8604 24.9868Q98.8247 24.7782 98.7716 24.5734Q98.7185 24.3685 98.6482 24.1689Q98.5779 23.9693 98.4911 23.7764Q98.4042 23.5834 98.3013 23.3985Q98.1984 23.2136 98.0803 23.038Q97.9622 22.8624 97.8296 22.6975Q97.6971 22.5325 97.551 22.3793Q97.405 22.2262 97.2466 22.0859Q97.0881 21.9456 96.9184 21.8192Q96.7487 21.6928 96.5689 21.5813Q96.3891 21.4697 96.2005 21.3737Q96.0119 21.2777 95.8159 21.198Q95.6199 21.1182 95.4178 21.0554Q95.2157 20.9925 95.0091 20.947Z" transform="translate(363.7905 183.0635)" id="New-shape-18" fill="#D3D3D3" stroke="none" />
      <path d="M95.0091 20.947L6.13522 1.35265Q5.99808 1.32242 5.85946 1.29993Q5.72085 1.27744 5.58119 1.26277Q5.44153 1.2481 5.30127 1.24129Q5.161 1.23448 5.02058 1.23556Q4.88015 1.23664 4.74001 1.24559Q4.59987 1.25455 4.46045 1.27136Q4.32103 1.28818 4.18278 1.31279Q4.04452 1.3374 3.90787 1.36973Q3.77121 1.40207 3.63659 1.44202Q3.50196 1.48198 3.36979 1.52943Q3.23762 1.57688 3.10833 1.63167Q2.97903 1.68647 2.85301 1.74844Q2.72699 1.8104 2.60466 1.87935Q2.48232 1.94829 2.36404 2.02399Q2.24576 2.09969 2.13192 2.18192Q2.01808 2.26414 1.90904 2.35262Q1.79999 2.44111 1.69609 2.53558Q1.59218 2.63004 1.49375 2.73019Q1.39531 2.83034 1.30265 2.93586Q1.20999 3.04138 1.1234 3.15193Q1.0368 3.26249 0.956557 3.37773Q0.876309 3.49297 0.802657 3.61253Q0.729005 3.7321 0.662181 3.85561Q0.595357 3.97912 0.535572 4.10618Q0.475787 4.23325 0.42323 4.36347Q0.370673 4.4937 0.325509 4.62666Q0.280346 4.75963 0.242718 4.89493Q0.20509 5.03022 0.175116 5.16741Q0.145143 5.3046 0.122918 5.44326Q0.100694 5.58192 0.0862885 5.72161Q0.0718831 5.8613 0.0653424 6.00157Q0.0588016 6.14185 0.0601459 6.28227L0.149626 15.6286Q0.151633 15.8382 0.171186 16.0469Q0.190738 16.2556 0.227698 16.462Q0.264658 16.6684 0.318767 16.8709Q0.372875 17.0735 0.443752 17.2708Q0.514629 17.4681 0.601776 17.6587Q0.688924 17.8494 0.79173 18.0321Q0.894536 18.2148 1.01228 18.3883Q1.13002 18.5617 1.26187 18.7247Q1.39373 18.8877 1.53876 19.0391Q1.6838 19.1905 1.841 19.3292Q1.9982 19.4679 2.16647 19.5929Q2.33473 19.718 2.51287 19.8285Q2.69101 19.939 2.87778 20.0343Q3.06456 20.1295 3.25864 20.2087Q3.45273 20.288 3.65277 20.3507Q3.85282 20.4134 4.05741 20.4592L92.8418 40.3142Q92.9783 40.3448 93.1163 40.3676Q93.2544 40.3905 93.3935 40.4056Q93.5326 40.4207 93.6723 40.4279Q93.812 40.4352 93.952 40.4347Q94.0919 40.4342 94.2315 40.4258Q94.3712 40.4174 94.5102 40.4013Q94.6492 40.3851 94.787 40.3612Q94.9249 40.3373 95.0612 40.3057Q95.1975 40.2741 95.3318 40.235Q95.4661 40.1958 95.5981 40.1492Q95.73 40.1026 95.8591 40.0487Q95.9882 39.9948 96.1141 39.9337Q96.24 39.8727 96.3623 39.8047Q96.4845 39.7367 96.6028 39.6619Q96.7211 39.5872 96.835 39.506Q96.949 39.4247 97.0582 39.3373Q97.1674 39.2498 97.2715 39.1563Q97.3756 39.0629 97.4744 38.9638Q97.5731 38.8646 97.6662 38.7602Q97.7592 38.6557 97.8463 38.5461Q97.9333 38.4366 98.0141 38.3224Q98.0949 38.2081 98.1692 38.0896Q98.2434 37.971 98.311 37.8484Q98.3785 37.7259 98.4391 37.5998Q98.4996 37.4736 98.5531 37.3443Q98.6065 37.215 98.6526 37.0829Q98.6987 36.9508 98.7373 36.8163Q98.776 36.6819 98.807 36.5454Q98.8381 36.409 98.8615 36.2711Q98.8848 36.1331 98.9005 35.9941Q98.9161 35.855 98.9239 35.7153Q98.9318 35.5756 98.9318 35.4357L98.9318 25.8287Q98.9318 25.6171 98.9139 25.4063Q98.896 25.1954 98.8604 24.9868Q98.8247 24.7782 98.7716 24.5734Q98.7184 24.3685 98.6482 24.1689Q98.5779 23.9693 98.491 23.7764Q98.4042 23.5834 98.3013 23.3985Q98.1984 23.2136 98.0803 23.038Q97.9621 22.8624 97.8296 22.6975Q97.697 22.5325 97.551 22.3793Q97.405 22.2262 97.2466 22.0859Q97.0881 21.9456 96.9184 21.8192Q96.7487 21.6928 96.5689 21.5813Q96.3891 21.4697 96.2005 21.3737Q96.0119 21.2777 95.8159 21.198Q95.6198 21.1182 95.4178 21.0554Q95.2157 20.9925 95.0091 20.947Z" transform="translate(363.7896 152.6827)" id="New-shape-19" fill="#D3D3D3" stroke="none" />
      <path d="M0 35.278C0 15.7945 11.5092 -1.52588e-05 25.7064 0C39.9037 0 51.4129 15.7945 51.4129 35.278C51.4129 54.7615 39.9037 70.556 25.7065 70.556C11.5092 70.556 0 54.7615 0 35.278Z" transform="matrix(0.9702957 -0.2419219 0.2419219 0.9702957 389.4917 78.9267)" id="Ellipse-9" fill="#D3D3D3" stroke="none" />
    </g>
  </g>
</svg>