<svg width="555" height="784" viewBox="0 0 555 784" fill="none" xmlns="http://www.w3.org/2000/svg">
<path d="M291.452 477.815C291.452 340.719 -156.5 -98.9175 315.952 -191.234C788.404 -283.55 1027.25 -12.6039 863.5 327.5C798.5 462.5 901.5 507 777 644C528 918 291.452 746.979 291.452 477.815Z" fill="#1D3A64"/>
<g clip-path="url(#clip0)">
<path d="M153.094 276.885L425.835 336.535L316.947 423.761L29.4904 352.463L153.094 276.885Z" fill="#ACACAC"/>
<path d="M426.087 336.44V350.194L319.425 439.184L29.7657 363.948V352.394L316.823 423.64L426.087 336.44Z" fill="#D3D3D3"/>
<path d="M174.587 159.15L173.707 288.288L373.84 332.861L379.024 196.06L174.587 159.15Z" fill="#F6F6F6"/>
<path d="M77.9298 627.89C77.9298 609.051 118.346 593.78 168.203 593.78C218.059 593.78 258.476 609.051 258.476 627.89C258.476 646.728 218.059 662 168.203 662C118.346 662 77.9298 646.728 77.9298 627.89Z" fill="#D8D8D8"/>
<path d="M126.92 604.509C126.92 604.509 123.194 612.34 125.268 616.062C127.342 619.785 128.293 624.886 134.075 622.663C136.789 621.62 141.573 616.791 147.011 613.035C153.159 608.789 160.693 605.55 161.047 603.958C161.715 600.957 162.462 597.928 158.57 595.705C153.899 596.15 142.799 600.083 137.929 603.133C133.058 606.183 126.92 604.509 126.92 604.509Z" fill="#393939"/>
<path d="M273.46 193.926L188.601 178.396C188.488 178.375 188.373 178.358 188.258 178.343C188.144 178.328 188.028 178.317 187.913 178.309C187.798 178.3 187.682 178.295 187.566 178.293C187.451 178.291 187.335 178.292 187.219 178.297C187.104 178.301 186.988 178.308 186.873 178.319C186.758 178.329 186.643 178.343 186.529 178.36C186.414 178.377 186.3 178.397 186.187 178.42C186.073 178.443 185.961 178.469 185.849 178.498C185.737 178.528 185.626 178.56 185.516 178.595C185.405 178.631 185.296 178.669 185.188 178.71C185.08 178.751 184.973 178.795 184.867 178.843C184.762 178.89 184.657 178.94 184.555 178.992C184.452 179.045 184.35 179.101 184.25 179.159C184.15 179.217 184.052 179.278 183.955 179.342C183.859 179.406 183.764 179.472 183.671 179.541C183.578 179.61 183.487 179.681 183.398 179.755C183.309 179.828 183.222 179.905 183.137 179.983C183.052 180.062 182.969 180.143 182.889 180.226C182.808 180.309 182.73 180.394 182.654 180.481C182.578 180.569 182.505 180.658 182.434 180.749C182.363 180.841 182.295 180.934 182.229 181.029C182.163 181.124 182.1 181.221 182.039 181.319C181.978 181.418 181.92 181.518 181.865 181.62C181.81 181.721 181.758 181.824 181.708 181.929C181.659 182.033 181.612 182.139 181.569 182.246C181.525 182.353 181.484 182.462 181.446 182.571C181.408 182.68 181.374 182.79 181.342 182.902C181.31 183.013 181.281 183.125 181.256 183.238C181.23 183.35 181.207 183.464 181.188 183.578C181.169 183.692 181.152 183.806 181.139 183.921C181.126 184.036 181.116 184.151 181.109 184.267C181.102 184.382 181.098 184.498 181.097 184.613L180.616 273.674C180.615 273.765 180.617 273.855 180.62 273.945C180.623 274.035 180.629 274.124 180.636 274.214C180.643 274.304 180.652 274.393 180.663 274.483C180.674 274.572 180.687 274.661 180.701 274.75C180.716 274.838 180.733 274.927 180.751 275.015C180.77 275.103 180.79 275.191 180.812 275.278C180.835 275.365 180.859 275.452 180.885 275.538C180.911 275.624 180.938 275.71 180.968 275.795C180.997 275.88 181.029 275.964 181.062 276.048C181.095 276.132 181.13 276.215 181.167 276.297C181.203 276.379 181.242 276.46 181.282 276.541C181.322 276.621 181.364 276.701 181.407 276.78C181.451 276.859 181.496 276.937 181.543 277.013C181.59 277.091 181.638 277.167 181.688 277.242C181.738 277.316 181.79 277.39 181.843 277.463C181.896 277.535 181.951 277.606 182.007 277.677C182.063 277.747 182.121 277.816 182.18 277.884C182.239 277.952 182.3 278.019 182.362 278.084C182.424 278.149 182.487 278.213 182.552 278.275C182.617 278.338 182.683 278.399 182.75 278.459C182.817 278.519 182.886 278.577 182.956 278.634C183.026 278.691 183.096 278.747 183.169 278.8C183.241 278.854 183.314 278.907 183.388 278.958C183.463 279.008 183.538 279.057 183.615 279.105C183.691 279.152 183.769 279.198 183.847 279.242C183.925 279.287 184.005 279.329 184.085 279.37C184.165 279.411 184.246 279.45 184.328 279.488C184.41 279.525 184.493 279.561 184.576 279.595C184.659 279.629 184.743 279.661 184.828 279.692C184.913 279.722 184.998 279.751 185.084 279.777C185.17 279.804 185.257 279.829 185.344 279.852C185.431 279.875 185.518 279.896 185.606 279.915L268.057 298.07C268.171 298.095 268.285 298.116 268.4 298.135C268.515 298.154 268.63 298.17 268.746 298.182C268.862 298.194 268.977 298.203 269.094 298.209C269.21 298.216 269.326 298.218 269.442 298.218C269.559 298.218 269.675 298.215 269.791 298.208C269.908 298.201 270.023 298.191 270.139 298.178C270.254 298.165 270.369 298.149 270.484 298.13C270.599 298.11 270.713 298.088 270.826 298.062C270.94 298.036 271.053 298.008 271.165 297.976C271.277 297.944 271.387 297.909 271.498 297.871C271.607 297.833 271.716 297.793 271.824 297.749C271.932 297.705 272.039 297.658 272.144 297.608C272.249 297.558 272.353 297.506 272.455 297.45C272.557 297.395 272.658 297.337 272.757 297.276C272.856 297.215 272.954 297.151 273.049 297.085C273.145 297.019 273.239 296.95 273.33 296.879C273.422 296.807 273.512 296.733 273.6 296.657C273.688 296.581 273.773 296.502 273.856 296.421C273.94 296.34 274.021 296.257 274.1 296.171C274.179 296.085 274.255 295.998 274.329 295.908C274.404 295.819 274.475 295.727 274.544 295.634C274.613 295.54 274.68 295.444 274.743 295.347C274.807 295.25 274.868 295.151 274.926 295.05C274.985 294.95 275.04 294.847 275.093 294.744C275.146 294.64 275.196 294.535 275.243 294.429C275.29 294.322 275.334 294.215 275.375 294.106C275.416 293.997 275.454 293.887 275.489 293.776C275.524 293.666 275.556 293.554 275.585 293.442C275.614 293.328 275.64 293.215 275.662 293.101C275.685 292.987 275.705 292.872 275.721 292.757C275.737 292.642 275.75 292.527 275.761 292.411C275.771 292.295 275.777 292.179 275.781 292.063L278.671 200.377C278.673 200.283 278.674 200.189 278.673 200.095C278.672 200.001 278.668 199.907 278.663 199.813C278.658 199.719 278.65 199.625 278.64 199.532C278.631 199.438 278.619 199.345 278.606 199.252C278.592 199.158 278.576 199.066 278.558 198.973C278.54 198.881 278.52 198.789 278.499 198.697C278.477 198.606 278.453 198.515 278.427 198.424C278.401 198.334 278.373 198.244 278.343 198.155C278.313 198.066 278.281 197.977 278.247 197.889C278.213 197.802 278.178 197.715 278.14 197.628C278.102 197.542 278.062 197.457 278.02 197.372C277.979 197.288 277.936 197.205 277.89 197.122C277.845 197.04 277.798 196.958 277.749 196.878C277.7 196.797 277.649 196.718 277.597 196.64C277.545 196.562 277.491 196.485 277.435 196.409C277.379 196.333 277.322 196.258 277.262 196.185C277.203 196.112 277.143 196.04 277.081 195.97C277.018 195.899 276.954 195.83 276.888 195.762C276.823 195.695 276.757 195.628 276.688 195.564C276.62 195.499 276.55 195.436 276.479 195.374C276.407 195.313 276.335 195.253 276.262 195.194C276.188 195.136 276.113 195.079 276.036 195.024C275.96 194.969 275.882 194.915 275.804 194.864C275.725 194.812 275.645 194.762 275.564 194.714C275.483 194.666 275.401 194.62 275.318 194.575C275.235 194.531 275.152 194.488 275.067 194.448C274.982 194.407 274.896 194.368 274.81 194.331C274.723 194.294 274.636 194.259 274.547 194.226C274.459 194.193 274.37 194.162 274.28 194.133C274.191 194.104 274.101 194.077 274.01 194.052C273.92 194.027 273.828 194.004 273.736 193.983C273.644 193.962 273.552 193.943 273.46 193.926Z" fill="#D3D3D3"/>
<path d="M170.363 627.683C170.363 627.683 166.621 635.823 170.37 642.251C174.12 648.679 180.373 643.378 186.645 641.641C192.916 639.904 207.825 637.36 210.505 636.498C213.185 635.636 213.905 625.203 205.177 624.606C196.449 624.009 184.132 628.429 180.18 624.453C176.228 620.478 170.363 627.683 170.363 627.683Z" fill="#393939"/>
<path d="M129.121 421.028C129.121 421.028 126.612 469.759 131.048 502.452C121.421 546.613 126.369 604.78 126.369 604.78C126.369 604.78 129.328 606.362 132.149 606.155C134.97 605.949 139.855 603.68 139.855 603.68L158.667 512.207L174.395 457.191L171.773 433.089L129.121 421.028Z" fill="#517CA4"/>
<path d="M130.772 389.669C130.772 389.669 128.039 416.711 129.121 421.304C130.204 425.896 154.055 440.077 163.524 440.009C169.217 440.211 167.271 625.306 167.271 625.306C167.271 625.306 171.151 627.568 175.359 627.893C179.566 628.219 184.101 626.609 184.101 626.609C184.101 626.609 197.26 549.187 205.909 506.579C214.557 463.971 212.171 404.012 212.171 404.012L130.772 389.669Z" fill="#6496C7"/>
<path d="M280.02 358.977L282.972 354.923L285.799 346.96C287.664 344.882 288.922 344.278 294.785 345.143C295.985 345.321 297.379 345.559 299.01 345.86C308.609 347.627 293.023 352.697 292.405 353.012" fill="#FCCDB4"/>
<path d="M286.497 356.673C285.282 352.438 290.338 347.273 297.789 345.138C305.241 343.002 312.267 344.704 313.482 348.939C314.697 353.174 309.641 358.338 302.189 360.474C294.738 362.61 287.712 360.908 286.497 356.673Z" fill="white"/>
<path d="M282.696 352.808L287.167 350.535L292.057 348.05C295.196 346.84 298.755 345.874 302.12 345.874C311.138 345.874 297.958 352.808 297.264 352.808" fill="#FCCDB4"/>
<path d="M286.549 354.79L291.02 352.517L295.91 350.032C299.049 348.822 302.607 347.856 305.973 347.856C314.991 347.856 301.811 354.79 301.117 354.79" fill="#FCCDB4"/>
<path d="M288.751 357.541L293.222 355.268L298.112 352.783C301.251 351.573 304.809 350.607 308.175 350.607C317.193 350.607 304.013 357.541 303.319 357.541" fill="#FCCDB4"/>
<path d="M288.75 360.842L293.222 358.569L298.112 356.084C301.25 354.874 304.809 353.908 308.174 353.908C317.193 353.908 302.732 360.927 302.038 360.927" fill="#FCCDB4"/>
<path d="M290.895 351.563C290.895 351.563 301.578 346.178 307.046 349.645C312.514 353.111 308.869 362.819 291.249 362.125C273.628 361.432 278.793 353.805 276.362 353.805" fill="#FCCDB4"/>
<path d="M138.205 351.128C138.205 351.128 150.068 357.213 151.302 364.244C152.535 371.276 142.368 374.151 130.247 358.089C118.125 342.026 127.766 341.806 126.02 339.651" fill="#F9B693"/>
<path d="M157.744 273.309C157.744 271.942 159.346 270.833 161.322 270.833C163.298 270.833 164.9 271.942 164.9 273.309C164.9 274.676 163.298 275.785 161.322 275.785C159.346 275.785 157.744 274.676 157.744 273.309Z" fill="#6C6C6C"/>
<path d="M157.468 238.098C153.707 220.414 155.191 206.202 169.018 203.264C182.845 200.327 197.102 212.281 200.863 229.965C204.624 247.648 196.463 264.365 182.636 267.302C168.809 270.24 161.228 255.781 157.468 238.098Z" fill="#FCCDB4"/>
<path d="M179.762 245.251C179.762 245.251 181.971 255.903 193.523 260.93C192.142 263.315 189.395 272.209 189.395 272.209C189.395 272.209 194.947 274.023 198.753 276.885C198.107 280.642 193.524 286.788 193.524 286.788L154.442 279.361C154.442 279.361 164.597 270.864 167.653 262.306C170.708 253.748 179.762 245.251 179.762 245.251Z" fill="#F9B693"/>
<path d="M139.855 278.811L141.506 306.594L132.149 311.545L141.781 346.481L127.745 354.454C127.745 354.454 107.929 318.502 104.901 308.521C101.873 298.54 117.71 289.981 120.314 288.713C122.918 287.445 139.855 278.811 139.855 278.811Z" fill="#D4686D"/>
<path d="M204.532 281.063C204.532 281.063 221.561 283.064 225.449 298.393C227.706 317.216 240.586 349.834 240.586 349.834L281.319 352.034L286.549 363.038C286.549 363.038 260.577 374.928 235.907 378.168C224.319 379.69 219.806 377.108 212.788 362.488L204.807 327.002C204.807 327.002 213.207 349.202 215.541 368.487C217.876 387.773 211.963 403.75 211.963 403.75C211.963 403.75 187.1 414.549 166.276 410.902C145.451 407.257 130.848 389.561 130.848 389.561L137.928 296.691C137.928 296.691 137.378 286.526 138.479 280.736C139.58 274.947 155.031 273.034 155.031 273.034C155.031 273.034 160.231 277.68 172.606 279.688C184.981 281.695 204.532 281.063 204.532 281.063Z" fill="#F4757B"/>
<path d="M142.607 218.018C140.061 231.841 154.28 247.61 165.175 265.332C165.976 266.634 171.368 261.756 176.46 258.18C181.551 254.603 179.762 244.976 179.762 244.976C179.762 244.976 177.118 246.292 174.533 236.173C171.949 226.054 183.25 228.639 183.615 233.422C183.981 238.206 185.01 238.4 186.331 240.717C187.651 243.034 189.346 239.105 189.346 239.105L188.154 226.209C188.154 226.209 197.956 193.557 191.321 195.461C181.046 198.41 179.837 201.197 172.056 200.687C164.274 200.178 145.153 204.195 142.607 218.018Z" fill="#272727"/>
<path d="M215.356 367.843L198.478 309.895C198.478 309.895 198.905 372.141 215.06 389.309C217.143 376.673 215.356 367.843 215.356 367.843Z" fill="#D4686D"/>
<path d="M162.423 271.108C154.265 272.819 158.487 275.922 174.809 277.435C198.988 279.677 198.753 276.885 198.753 276.885C198.753 276.885 207.585 278.956 203.708 281.837C200.229 284.421 171.081 281.195 159.847 277.674C148.613 274.153 156.339 271.826 158.295 271.108C160.25 270.391 162.971 270.993 162.423 271.108Z" fill="#D4686D"/>
<path d="M353.683 303.232L290.884 289.394C290.82 289.38 290.755 289.367 290.689 289.357C290.624 289.346 290.558 289.337 290.493 289.33C290.427 289.324 290.361 289.318 290.295 289.315C290.229 289.312 290.163 289.311 290.097 289.311C290.03 289.312 289.964 289.314 289.898 289.318C289.832 289.323 289.766 289.329 289.701 289.337C289.635 289.344 289.57 289.354 289.505 289.366C289.439 289.377 289.375 289.391 289.31 289.406C289.246 289.421 289.182 289.438 289.119 289.457C289.055 289.476 288.992 289.496 288.93 289.519C288.868 289.541 288.806 289.565 288.745 289.591C288.684 289.617 288.624 289.644 288.565 289.673C288.506 289.703 288.447 289.733 288.389 289.766C288.332 289.798 288.275 289.832 288.219 289.868C288.164 289.904 288.109 289.941 288.055 289.98C288.002 290.018 287.949 290.058 287.898 290.1C287.847 290.142 287.796 290.185 287.747 290.229C287.698 290.274 287.651 290.32 287.604 290.367C287.558 290.414 287.513 290.462 287.469 290.512C287.426 290.562 287.384 290.613 287.343 290.665C287.302 290.717 287.263 290.77 287.225 290.824C287.187 290.878 287.151 290.934 287.116 290.99C287.081 291.046 287.048 291.103 287.017 291.162C286.985 291.22 286.956 291.279 286.927 291.339C286.899 291.398 286.873 291.459 286.848 291.52C286.823 291.582 286.8 291.644 286.779 291.706C286.758 291.769 286.738 291.832 286.72 291.896C286.703 291.959 286.687 292.024 286.673 292.088C286.659 292.153 286.646 292.218 286.636 292.283C286.625 292.348 286.617 292.414 286.61 292.48C286.603 292.545 286.598 292.611 286.595 292.677C286.592 292.743 286.591 292.809 286.591 292.875L286.655 299.476C286.656 299.575 286.661 299.673 286.67 299.772C286.679 299.87 286.692 299.968 286.71 300.065C286.727 300.162 286.749 300.258 286.774 300.354C286.8 300.449 286.829 300.543 286.863 300.636C286.896 300.729 286.933 300.82 286.974 300.91C287.015 301 287.06 301.088 287.108 301.174C287.157 301.26 287.209 301.344 287.264 301.425C287.32 301.507 287.379 301.586 287.441 301.663C287.503 301.74 287.568 301.814 287.636 301.885C287.705 301.956 287.776 302.025 287.85 302.09C287.924 302.155 288.001 302.217 288.08 302.276C288.159 302.335 288.241 302.39 288.325 302.443C288.409 302.495 288.494 302.543 288.582 302.588C288.67 302.633 288.76 302.674 288.852 302.711C288.943 302.748 289.036 302.782 289.13 302.811C289.224 302.841 289.32 302.866 289.416 302.888L352.152 316.911C352.216 316.925 352.281 316.938 352.346 316.948C352.411 316.959 352.476 316.968 352.542 316.975C352.607 316.982 352.673 316.987 352.739 316.991C352.805 316.994 352.871 316.996 352.937 316.996C353.002 316.995 353.068 316.993 353.134 316.989C353.2 316.985 353.265 316.98 353.331 316.972C353.396 316.964 353.462 316.955 353.527 316.944C353.592 316.932 353.656 316.919 353.72 316.905C353.785 316.89 353.848 316.873 353.912 316.855C353.975 316.836 354.038 316.816 354.1 316.794C354.162 316.772 354.223 316.748 354.284 316.723C354.345 316.698 354.405 316.671 354.464 316.642C354.524 316.613 354.582 316.583 354.64 316.551C354.697 316.519 354.754 316.485 354.81 316.45C354.865 316.415 354.92 316.378 354.974 316.34C355.027 316.301 355.08 316.262 355.131 316.221C355.183 316.179 355.233 316.137 355.282 316.093C355.331 316.049 355.379 316.003 355.426 315.957C355.472 315.91 355.517 315.862 355.561 315.813C355.605 315.764 355.647 315.713 355.688 315.662C355.729 315.61 355.769 315.558 355.807 315.504C355.845 315.45 355.881 315.395 355.916 315.339C355.951 315.284 355.985 315.227 356.017 315.169C356.048 315.111 356.079 315.053 356.107 314.993C356.136 314.934 356.163 314.874 356.188 314.813C356.213 314.752 356.236 314.691 356.258 314.628C356.28 314.566 356.3 314.503 356.318 314.44C356.336 314.377 356.353 314.313 356.367 314.249C356.382 314.185 356.395 314.12 356.406 314.055C356.417 313.99 356.426 313.925 356.433 313.859C356.441 313.794 356.446 313.728 356.45 313.663C356.453 313.597 356.455 313.531 356.455 313.465V306.68C356.455 306.581 356.451 306.481 356.443 306.382C356.434 306.283 356.422 306.184 356.405 306.086C356.388 305.987 356.367 305.89 356.342 305.794C356.317 305.697 356.288 305.602 356.255 305.508C356.222 305.414 356.185 305.322 356.144 305.231C356.103 305.14 356.058 305.051 356.01 304.964C355.961 304.877 355.909 304.792 355.854 304.709C355.798 304.627 355.739 304.546 355.676 304.469C355.614 304.391 355.548 304.316 355.48 304.244C355.411 304.172 355.339 304.103 355.265 304.037C355.19 303.971 355.113 303.908 355.033 303.848C354.953 303.789 354.87 303.733 354.786 303.68C354.701 303.628 354.614 303.579 354.525 303.534C354.437 303.489 354.346 303.447 354.254 303.41C354.161 303.372 354.067 303.339 353.972 303.309C353.877 303.279 353.781 303.254 353.683 303.232Z" fill="#D3D3D3"/>
<path d="M353.683 281.776L290.883 267.937C290.819 267.923 290.754 267.911 290.689 267.9C290.623 267.89 290.558 267.881 290.492 267.874C290.426 267.867 290.36 267.862 290.294 267.859C290.228 267.856 290.162 267.854 290.096 267.855C290.03 267.855 289.964 267.858 289.898 267.862C289.832 267.866 289.766 267.872 289.7 267.88C289.634 267.888 289.569 267.898 289.504 267.909C289.439 267.921 289.374 267.934 289.31 267.95C289.245 267.965 289.181 267.982 289.118 268.001C289.054 268.019 288.992 268.04 288.929 268.062C288.867 268.085 288.806 268.109 288.745 268.135C288.684 268.16 288.624 268.188 288.564 268.217C288.505 268.246 288.446 268.277 288.389 268.309C288.331 268.342 288.274 268.376 288.219 268.412C288.163 268.447 288.108 268.484 288.055 268.523C288.001 268.562 287.949 268.602 287.897 268.644C287.846 268.685 287.796 268.728 287.747 268.773C287.698 268.817 287.65 268.863 287.604 268.91C287.557 268.957 287.512 269.006 287.469 269.056C287.425 269.105 287.383 269.156 287.342 269.208C287.301 269.26 287.262 269.313 287.224 269.368C287.186 269.422 287.15 269.477 287.115 269.533C287.081 269.59 287.048 269.647 287.016 269.705C286.985 269.763 286.955 269.822 286.927 269.882C286.899 269.942 286.872 270.003 286.847 270.064C286.823 270.125 286.8 270.187 286.778 270.25C286.757 270.312 286.737 270.375 286.72 270.439C286.702 270.503 286.686 270.567 286.672 270.632C286.658 270.696 286.646 270.761 286.635 270.826C286.625 270.892 286.616 270.957 286.609 271.023C286.602 271.089 286.597 271.155 286.594 271.221C286.591 271.287 286.59 271.353 286.591 271.419L286.654 278.02C286.655 278.119 286.66 278.217 286.669 278.315C286.678 278.414 286.692 278.511 286.709 278.608C286.727 278.706 286.748 278.802 286.773 278.897C286.799 278.993 286.828 279.087 286.862 279.18C286.895 279.273 286.932 279.364 286.973 279.454C287.015 279.543 287.059 279.631 287.108 279.717C287.156 279.803 287.208 279.887 287.264 279.969C287.319 280.051 287.378 280.13 287.44 280.206C287.502 280.283 287.567 280.357 287.636 280.429C287.704 280.5 287.775 280.568 287.849 280.633C287.923 280.699 288 280.761 288.079 280.82C288.158 280.879 288.24 280.934 288.324 280.986C288.408 281.038 288.494 281.087 288.582 281.131C288.67 281.176 288.759 281.217 288.851 281.255C288.942 281.292 289.035 281.325 289.129 281.355C289.224 281.384 289.319 281.41 289.415 281.431L352.151 295.454C352.216 295.468 352.28 295.481 352.345 295.492C352.41 295.503 352.476 295.512 352.541 295.519C352.607 295.526 352.672 295.531 352.738 295.534C352.804 295.538 352.87 295.539 352.936 295.539C353.002 295.539 353.068 295.537 353.133 295.533C353.199 295.529 353.265 295.523 353.33 295.516C353.396 295.508 353.461 295.499 353.526 295.487C353.591 295.476 353.655 295.463 353.72 295.448C353.784 295.433 353.848 295.417 353.911 295.398C353.974 295.38 354.037 295.359 354.099 295.338C354.161 295.316 354.223 295.292 354.283 295.267C354.344 295.241 354.404 295.214 354.464 295.185C354.523 295.157 354.581 295.126 354.639 295.094C354.697 295.062 354.753 295.029 354.809 294.993C354.865 294.958 354.919 294.922 354.973 294.883C355.027 294.845 355.079 294.805 355.131 294.764C355.182 294.723 355.232 294.68 355.281 294.636C355.33 294.592 355.378 294.547 355.425 294.5C355.471 294.454 355.516 294.406 355.56 294.357C355.604 294.307 355.647 294.257 355.688 294.205C355.729 294.154 355.768 294.101 355.806 294.047C355.844 293.994 355.881 293.939 355.916 293.883C355.951 293.827 355.984 293.77 356.016 293.713C356.048 293.655 356.078 293.596 356.106 293.537C356.135 293.478 356.162 293.417 356.187 293.357C356.212 293.296 356.236 293.234 356.257 293.172C356.279 293.11 356.299 293.047 356.317 292.984C356.335 292.92 356.352 292.857 356.366 292.792C356.381 292.728 356.394 292.664 356.405 292.599C356.416 292.534 356.425 292.468 356.433 292.403C356.44 292.338 356.445 292.272 356.449 292.206C356.453 292.14 356.455 292.074 356.455 292.009V285.224C356.455 285.124 356.45 285.025 356.442 284.925C356.434 284.826 356.421 284.727 356.404 284.629C356.387 284.531 356.366 284.434 356.341 284.337C356.316 284.241 356.287 284.145 356.254 284.051C356.221 283.957 356.184 283.865 356.143 283.774C356.102 283.683 356.058 283.594 356.009 283.507C355.961 283.42 355.909 283.335 355.853 283.253C355.797 283.17 355.738 283.09 355.676 283.012C355.613 282.935 355.548 282.86 355.479 282.788C355.41 282.715 355.338 282.646 355.264 282.58C355.189 282.514 355.112 282.451 355.032 282.392C354.952 282.332 354.87 282.276 354.785 282.224C354.7 282.171 354.613 282.123 354.525 282.077C354.436 282.032 354.345 281.991 354.253 281.953C354.161 281.916 354.067 281.882 353.972 281.853C353.876 281.823 353.78 281.797 353.683 281.776Z" fill="#D3D3D3"/>
<path d="M310.74 239.067C307.41 225.715 312.601 212.926 322.335 210.5C332.069 208.074 342.66 216.931 345.99 230.283C349.321 243.634 344.13 256.424 334.396 258.85C324.662 261.276 314.071 252.418 310.74 239.067Z" fill="#D3D3D3"/>
</g>
<defs>
<clipPath id="clip0">
<rect width="513" height="565" fill="white" transform="translate(0 97)"/>
</clipPath>
</defs>
</svg>
